<svg xmlns="http://www.w3.org/2000/svg" viewBox="0 0 1200 1800" preserveAspectRatio="xMidYMid slice">
  <defs>
    <linearGradient id="sky" x1="0" y1="0" x2="0" y2="1"><stop offset="0" stop-color="#0b1c34"/><stop offset=".42" stop-color="#113e5e"/><stop offset=".65" stop-color="#d8893d"/><stop offset="1" stop-color="#080c12"/></linearGradient>
    <linearGradient id="sea" x1="0" y1="0" x2="1" y2="1"><stop offset="0" stop-color="#083552"/><stop offset=".45" stop-color="#087993"/><stop offset="1" stop-color="#02101b"/></linearGradient>
    <filter id="blur"><feGaussianBlur stdDeviation="8"/></filter>
  </defs>
  <rect width="1200" height="1800" fill="url(#sky)"/>
  <circle cx="980" cy="520" r="95" fill="#ffd28b" opacity=".88"/>
  <path d="M0 790 C170 740 290 780 430 730 C610 660 730 720 880 665 C1010 620 1120 650 1200 620 L1200 1800 L0 1800 Z" fill="url(#sea)"/>
  <path d="M0 1060 C170 1010 275 1085 430 1025 C625 950 770 1030 940 955 C1050 910 1130 940 1200 918 L1200 1800 L0 1800 Z" fill="#051018" opacity=".78"/>
  <path d="M0 935 C250 900 380 980 560 900 C750 815 920 900 1200 800" fill="none" stroke="#b9f6ff" stroke-width="18" opacity=".72"/>
  <path d="M60 1080 C280 1040 380 1120 560 1050 C740 980 940 1035 1180 960" fill="none" stroke="#fff" stroke-width="9" opacity=".55"/>
  <path d="M0 760 L130 650 L240 735 L355 575 L505 740 L645 625 L790 735 L960 600 L1200 705 L1200 1800 L0 1800 Z" fill="#140e0b" opacity=".82"/>
  <path d="M0 860 L170 780 L290 865 L410 735 L570 865 L720 760 L900 870 L1050 760 L1200 835 L1200 1800 L0 1800 Z" fill="#07090b" opacity=".76"/>
  <g opacity=".18" filter="url(#blur)"><circle cx="220" cy="420" r="160" fill="#ffad47"/><circle cx="980" cy="480" r="170" fill="#ffad47"/></g>
</svg>
