<svg xmlns="http://www.w3.org/2000/svg" viewBox="0 0 900 1600" preserveAspectRatio="xMidYMid slice">
  <defs>
    <linearGradient id="sky" x1="0" y1="0" x2="0" y2="1">
      <stop offset="0" stop-color="#f3a94a"/><stop offset=".22" stop-color="#1e7896"/><stop offset=".48" stop-color="#07111d"/><stop offset="1" stop-color="#030405"/>
    </linearGradient>
    <radialGradient id="sun" cx="20%" cy="15%" r="30%"><stop stop-color="#ffe7a8"/><stop offset=".24" stop-color="#efb65a"/><stop offset="1" stop-color="#efb65a" stop-opacity="0"/></radialGradient>
    <filter id="blur"><feGaussianBlur stdDeviation="20"/></filter>
  </defs>
  <rect width="900" height="1600" fill="url(#sky)"/>
  <circle cx="150" cy="210" r="210" fill="url(#sun)" opacity=".9"/>
  <path d="M0 575 C130 480 250 535 385 455 C540 365 680 390 900 250 L900 980 L0 980Z" fill="#008aa4" opacity=".86"/>
  <path d="M0 650 C150 610 250 670 405 605 C610 520 760 560 900 480 L900 980 L0 980Z" fill="#13c0d3" opacity=".5"/>
  <path d="M0 725 C160 670 330 760 520 690 C690 630 800 650 900 620 L900 1060 L0 1060Z" fill="#dceef0" opacity=".54"/>
  <path d="M0 780 C200 690 360 790 540 725 C710 665 800 705 900 650 L900 1600 L0 1600Z" fill="#090503"/>
  <path d="M0 510 L235 210 L455 620Z" fill="#0a0c0e" opacity=".76"/>
  <path d="M330 620 L680 250 L940 650Z" fill="#2b2018" opacity=".87"/>
  <path d="M0 900 C230 840 390 930 590 855 C730 805 820 840 900 810 L900 1600 L0 1600Z" fill="#030405"/>
  <ellipse cx="590" cy="355" rx="270" ry="200" fill="#f4c36b" opacity=".18" filter="url(#blur)"/>
</svg>
