<svg xmlns="http://www.w3.org/2000/svg" viewBox="0 0 900 1600"><defs><linearGradient id="s" x1="0" y1="0" x2="0" y2="1"><stop offset="0" stop-color="#06566d"/><stop offset=".35" stop-color="#0a89a8"/><stop offset=".62" stop-color="#e3b46b"/><stop offset="1" stop-color="#20110b"/></linearGradient><filter id="b"><feGaussianBlur stdDeviation="18"/></filter></defs><rect width="900" height="1600" fill="url(#s)"/><path d="M0 660 C160 560 330 760 500 640 C660 525 770 610 900 540 L900 1600 L0 1600Z" fill="#0b0b0b" opacity=".88"/><path d="M0 585 C140 650 260 535 410 600 C560 665 690 560 900 610" stroke="#effaff" stroke-width="18" opacity=".7" fill="none" filter="url(#b)"/><path d="M0 520 C180 460 310 570 470 505 C640 435 720 520 900 455" stroke="#ffffff" stroke-width="8" opacity=".55" fill="none"/><circle cx="720" cy="260" r="90" fill="#ffcb75" opacity=".9"/><path d="M130 825 C250 690 360 690 480 825 Z" fill="#120906"/><path d="M420 810 C520 660 650 655 785 810 Z" fill="#1d0d08"/><g opacity=".32" fill="#fff"><circle cx="130" cy="390" r="2"/><circle cx="340" cy="310" r="2"/><circle cx="610" cy="380" r="2"/><circle cx="780" cy="330" r="2"/></g></svg>
